HIERARCHY
ROOT Hips
{
  OFFSET 140.902 130.527 146.671
  CHANNELS 6 Xposition Yposition Zposition Zrotation Xrotation Yrotation
  JOINT ToSpine
  {
    OFFSET -2.69724 7.43032 -0.144315
    CHANNELS 3 Zrotation Xrotation Yrotation
    JOINT Spine
    {
      OFFSET -0.0310711 10.7595 1.96963
      CHANNELS 3 Zrotation Xrotation Yrotation
      JOINT Spine1
      {
        OFFSET 13.1342 3.43533 0.764692
        CHANNELS 3 Zrotation Xrotation Yrotation
        JOINT Neck
        {
          OFFSET 29.8703 7.82586 -0.130764
          CHANNELS 3 Zrotation Xrotation Yrotation
          JOINT Head
          {
            OFFSET 9.52751 0.295786 -0.907742
            CHANNELS 3 Zrotation Xrotation Yrotation
            End Site
            {
              OFFSET 16.4037 0.713936 2.7358
            }
          }
        }
        JOINT LeftShoulder
        {
          OFFSET 27.5574 4.95586 2.47156
          CHANNELS 3 Zrotation Xrotation Yrotation
          JOINT LeftArm
          {
            OFFSET 1.20734 -0.998971 20.1238
            CHANNELS 3 Zrotation Xrotation Yrotation
            JOINT LeftForeArm
            {
              OFFSET 26.8049 -0.0536703 -0.155908
              CHANNELS 3 Zrotation Xrotation Yrotation
              JOINT LeftHand
              {
                OFFSET 26.6817 0 0.320147
                CHANNELS 3 Zrotation Xrotation Yrotation
                End Site
                {
                  OFFSET 18.6119 0 0.382219
                }
              }
            }
          }
        }
        JOINT RightShoulder
        {
          OFFSET 27.5927 4.71444 -2.65209
          CHANNELS 3 Zrotation Xrotation Yrotation
          JOINT RightArm
          {
            OFFSET 2.83739 -1.17114 -18.7564
            CHANNELS 3 Zrotation Xrotation Yrotation
            JOINT RightForeArm
            {
              OFFSET 28.839 -0.0548439 1.22491
              CHANNELS 3 Zrotation Xrotation Yrotation
              JOINT RightHand
              {
                OFFSET 26.5114 0 -0.101894
                CHANNELS 3 Zrotation Xrotation Yrotation
                End Site
                {
                  OFFSET 18.2168 0 0
                }
              }
            }
          }
        }
      }
    }
  }
  JOINT LeftUpLeg
  {
    OFFSET -4.76168 -1.9167 -10.2353
    CHANNELS 3 Zrotation Xrotation Yrotation
    JOINT LeftLeg
    {
      OFFSET 2.55951 -42.0585 -8.02213
      CHANNELS 3 Zrotation Xrotation Yrotation
      JOINT LeftFoot
      {
        OFFSET 3.16357 -42.5282 -3.95426
        CHANNELS 3 Zrotation Xrotation Yrotation
        JOINT LeftToeBase
        {
          OFFSET 0.346054 -6.02161 12.8035
          CHANNELS 3 Zrotation Xrotation Yrotation
          End Site
          {
            OFFSET 0.134235 -1.35082 5.13018
          }
        }
      }
    }
  }
  JOINT RightUpLeg
  {
    OFFSET -4.94151 -1.41743 10.6446
    CHANNELS 3 Zrotation Xrotation Yrotation
    JOINT RightLeg
    {
      OFFSET -2.56294 -42.0364 -7.94377
      CHANNELS 3 Zrotation Xrotation Yrotation
      JOINT RightFoot
      {
        OFFSET -3.0952 -42.555 -4.02241
        CHANNELS 3 Zrotation Xrotation Yrotation
        JOINT RightToeBase
        {
          OFFSET -0.0828122 -6.13587 12.8035
          CHANNELS 3 Zrotation Xrotation Yrotation
          End Site
          {
            OFFSET -0.131328 -1.35082 5.13018
          }
        }
      }
    }
  }
}
MOTION
Frames:	20
Frame Time:	0.0333333
-292.396 92.6841 -299.001 59.322 -39.5992 -19.852 -70.1915 0 88.8779 90.5257 71.2387 -1.8294 2.23657 20.3536 2.77608 -156.165 20.5707 174.818 -154.633 59.8315 -173 -0.236764 -15.6103 -34.3131 -61.7849 46.4038 -92.7854 7.82362 14.4659 -29.0119 0.420957 0.000575396 0.35866 -1.82846 5.92982 45.3508 -65.9072 -34.5714 92.2505 7.87872 -14.4175 29.1862 0.58676 0.000331183 0.0646654 -35.442 2.93317 94.5297 -11.3495 70.7379 -3.1036 -1.36058 -1.03168 -0.00737173 12.5022 -23.5169 17.8231 -40.7807 9.8833 88.8954 1.40907 39.602 -2.19276 -6.91411 -18.7667 1.38049 2.30612 1.84953 -14.2686 
-289.614 93.2395 -296.156 59.3307 -39.7508 -20.2357 -70.1915 0 88.8779 89.307 72.1563 -1.21949 2.06767 21.2174 3.00081 -155.387 21.2596 175.522 -156.096 60.6478 -171.719 -0.162749 -15.3265 -34.1814 -63.8598 47.5901 -90.3769 8.37671 14.7086 -29.8061 0.420957 0.000575396 0.35866 -1.8479 6.15503 44.5305 -67.6711 -35.2957 91.6515 9.23814 -15.4266 31.5306 0.58676 0.000331183 0.0646654 -31.3735 2.82808 94.7293 -8.35738 66.0596 -4.76568 -0.854968 -5.35048 -0.439959 9.35798 -19.2432 15.7057 -45.7231 10.0599 89.8843 0.777905 35.2253 -4.32772 -9.93536 -18.5242 1.27267 1.35827 -0.842827 -8.16201 
-286.74 93.3915 -293.731 59.3718 -39.7494 -21.272 -70.1915 0 88.8779 90.6029 72.7215 -2.94062 1.17323 22.0318 2.31914 -155.106 21.5589 175.456 -157.437 61.0485 -170.719 0.0479062 -14.5928 -33.2858 -65.5206 48.5472 -88.3478 7.65503 13.2377 -30.0994 0.420957 0.000575396 0.35866 -1.82786 6.12503 44.3641 -67.2747 -35.2012 92.605 9.57933 -15.0936 33.0318 0.58676 0.000331183 0.0646654 -28.3446 1.9973 95.7222 -5.53788 58.2477 -6.64998 -0.725747 -6.32996 -0.534483 9.33549 -19.2306 14.6502 -48.4422 8.35355 88.5673 0.267652 35.1291 -2.56573 -8.07672 -19.9901 1.34796 1.12568 -0.181659 -6.91799 
-283.664 93.2893 -291.109 59.0446 -39.9143 -21.4917 -70.1915 0 88.8779 91.2234 73.2296 -2.71454 0.963165 22.7738 1.4189 -155.471 21.8923 175.657 -157.688 61.3778 -170.929 0.0897125 -14.393 -33.3788 -66.0058 48.7652 -86.9369 8.57755 14.1093 -31.3877 0.420957 0.000575396 0.35866 -1.80198 6.20334 43.5851 -66.8171 -35.25 93.6411 9.80343 -14.5168 34.6643 0.58676 0.000331183 0.0646654 -26.0339 2.08983 95.9904 -3.6922 48.9454 -7.28471 -1.61932 -7.20051 -0.550172 9.15394 -18.9719 13.9835 -52.0769 7.39236 86.0223 -0.301114 32.7573 -0.0438992 -10.0269 -20.4925 1.24986 0.895835 -5.44353 -2.14496 
-280.576 93.1128 -288.557 57.8283 -40.0706 -22.4351 -70.1915 0 88.8779 87.6348 73.7822 1.41728 1.51638 23.4187 0.824512 -155.798 22.1471 175.998 -157.95 61.6744 -170.299 0.071309 -14.388 -33.8743 -66.5672 48.7576 -85.7486 9.42571 15.2402 -31.8849 0.420957 0.000575396 0.35866 -1.82506 6.32651 43.3659 -65.5102 -33.9515 95.4536 9.79739 -14.0719 35.471 0.58676 0.000331183 0.0646654 -24.153 1.72762 95.1196 -2.60582 38.1739 -8.32098 -2.60365 -6.31345 -0.394098 7.80687 -16.9228 13.1648 -55.0524 5.52479 82.5636 0.261408 30.6871 4.4237 -9.38764 -21.3389 1.27986 0.916391 -7.12796 -0.626266 
-277.394 92.6514 -285.829 57.337 -40.1889 -22.6396 -70.1915 0 88.8779 86.225 74.0265 3.2496 1.94439 23.8447 0.086759 -156.364 22.318 175.83 -157.901 61.8229 -170.905 0.132519 -14.1099 -33.9718 -66.5325 48.6975 -85.4 9.28479 14.779 -32.2742 0.420957 0.000575396 0.35866 -1.83605 6.37725 43.3001 -62.3257 -32.659 98.4985 7.85157 -11.3701 35.128 0.58676 0.000331183 0.0646654 -23.4007 1.12613 93.3798 -1.83072 27.9589 -9.02613 -2.08965 -4.87322 -0.291676 9.334 -19.2608 12.9952 -58.4977 5.04757 81.6063 0.713938 28.8167 6.14337 -9.83272 -21.0553 1.25539 1.35854 -6.6637 -5.34902 
-273.945 91.9212 -283.013 58.1415 -40.8927 -22.11 -70.1915 0 88.8779 89.0365 74.3821 0.301358 2.0691 24.2266 -0.0515107 -156.735 22.369 176.15 -158.151 61.8967 -170.639 0.158817 -13.9311 -34.412 -66.7416 48.5713 -84.8576 9.45135 14.761 -32.7802 0.420957 0.000575396 0.35866 -1.84405 6.46946 43.004 -62.58 -31.728 99.483 8.50078 -12.481 34.7963 0.58676 0.000331183 0.0646654 -22.5383 3.09066 95.7014 -3.61804 24.4385 -13.1912 0.254857 -5.73069 -0.560557 9.92234 -20.1081 14.2688 -62.6792 4.77058 81.2744 0.374014 28.1948 7.43844 -7.37428 -21.7539 1.40728 1.37677 -8.41468 -4.06706 
-270.687 91.0992 -280.225 58.0921 -41.3671 -22.1441 -70.1915 0 88.8779 89.4338 74.7458 -0.361552 1.9255 24.6362 0.0275517 -156.873 22.3721 176.458 -159.619 61.9933 -169.423 0.213417 -13.6716 -34.6278 -67.029 48.4549 -84.6577 9.35156 14.7499 -32.5222 0.420957 0.000575396 0.35866 -1.90863 6.73082 42.8095 -64.1973 -31.5814 99.1394 10.3107 -15.1938 34.8325 0.58676 0.000331183 0.0646654 -22.3111 0.989767 92.8451 -0.908772 22.4169 -11.7033 -0.504674 -5.37882 -0.471172 10.3245 -20.6538 15.2975 -65.1548 4.86297 81.8498 -0.243738 29.0475 8.26222 -6.00135 -21.539 1.48945 1.64986 -11.9224 -3.44866 
-266.814 90.0958 -277.305 57.7119 -41.7904 -22.6974 -70.1915 0 88.8779 88.4302 75.4205 0.358266 1.49337 25.3578 0.0816024 -156.991 22.6231 175.456 -158.764 62.1597 -171.019 0.243572 -13.5479 -34.6111 -66.904 48.3506 -85.0307 9.19602 14.955 -31.7391 0.420957 0.000575396 0.35866 -1.8475 6.52132 42.8248 -65.0811 -31.6423 98.5721 9.65122 -14.7033 33.9083 0.58676 0.000331183 0.0646654 -20.7072 0.907097 92.7384 -1.81288 28.1903 -9.43418 -1.61881 -6.86362 -0.518589 9.25998 -19.1234 14.3977 -66.613 4.18848 83.1042 -0.334646 32.1387 8.93284 -6.08507 -19.1393 1.42052 2.09798 -15.8421 -6.69945 
-262.642 89.7064 -274.234 58.167 -41.6535 -23.6218 -70.1915 0 88.8779 83.5801 75.6432 3.53255 1.91674 25.6849 0.0241157 -156.293 22.6007 174.578 -158.026 62.0909 -171.628 0.323138 -13.2174 -34.5938 -67.4169 48.3907 -84.8135 8.94564 14.8046 -31.2779 0.420957 0.000575396 0.35866 -1.94061 6.5814 43.9329 -65.9367 -31.4374 96.8019 9.93429 -15.4433 33.4123 0.58676 0.000331183 0.0646654 -20.4957 -0.527623 93.3798 -2.32237 33.5541 -8.7005 -0.390856 -1.58642 -0.169048 8.23951 -17.5596 11.0158 -68.2946 2.87519 86.9748 0.615868 35.1678 5.7137 -4.65793 -14.1671 1.28319 2.77381 -23.2343 -2.94721 
-258.377 89.6466 -271.071 58.8799 -41.2244 -24.3615 -70.1915 0 88.8779 83.2452 76.077 1.28167 0.151513 25.7535 1.63451 -155.974 22.9691 174.28 -159.327 62.5186 -171.318 0.249612 -13.4446 -35.2193 -67.8453 48.0166 -84.4571 8.08357 14.602 -29.3215 0.420957 0.000575396 0.35866 -1.85938 6.24 44.2981 -66.076 -32.2015 94.8631 9.94377 -15.911 32.6671 0.58676 0.000331183 0.0646654 -20.8706 -1.92496 94.2635 -2.6293 39.3414 -7.55038 -1.38047 -1.20635 -0.0207363 7.08483 -15.6374 9.74195 -67.994 1.57938 90.4435 2.13693 41.1929 2.32741 -2.23947 -6.3334 0.804172 3.93297 -29.8277 1.08237 
-254.298 90.1513 -267.996 59.5485 -40.2809 -23.9938 -70.1915 0 88.8779 79.2895 75.5368 5.25327 1.06222 25.6611 0.397538 -154.544 22.9747 173.458 -159.093 62.5432 -171.243 0.18825 -13.7954 -34.4949 -69.1088 47.9069 -84.3862 7.49897 15.4597 -27.9468 0.420957 0.000575396 0.35866 -1.8985 6.31123 44.5565 -66.0848 -33.5794 93.5335 9.98924 -16.615 31.698 0.58676 0.000331183 0.0646654 -22.1325 -3.39031 94.5491 -3.22916 43.2514 -9.51602 1.75283 -2.1105 -0.448595 5.0084 -12.6391 13.8367 -65.1892 0.174702 88.6526 2.77499 48.6474 1.38016 -1.83898 5.80899 0.0316548 4.87388 -31.6742 6.11178 
-250.308 90.5911 -265.212 60.05 -39.8148 -23.7257 -70.1915 0 88.8779 78.393 74.8289 6.0419 1.36948 25.0367 0.145041 -154.384 22.785 173.888 -158.534 62.3073 -171.56 0.192288 -13.839 -34.0751 -70.5198 48.3269 -83.9462 8.06294 16.618 -27.9869 0.420957 0.000575396 0.35866 -1.8875 6.40153 43.9658 -63.7508 -34.9942 94.1354 7.78248 -13.3049 30.843 0.58676 0.000331183 0.0646654 -24.3692 -5.02186 93.8892 -3.25814 45.311 -7.54804 4.00706 -5.21809 -0.833355 3.86925 -9.74293 6.90929 -59.7548 -0.245837 89.1586 5.27346 59.811 3.15528 -0.521948 14.6036 -0.832764 2.31762 -20.601 -11.5451 
-246.502 91.6479 -262.478 61.0449 -39.3866 -22.9439 -70.1915 0 88.8779 79.7147 74.1345 3.84539 1.27793 24.004 1.12317 -154.867 22.3752 174.1 -158.621 61.8686 -171.965 0.116597 -14.1551 -34.1154 -69.1002 47.8642 -85.5194 8.34465 15.9076 -28.724 0.420957 0.000575396 0.35866 -1.88878 6.30871 44.4204 -63.4925 -34.7379 93.309 8.61664 -14.5649 31.175 0.58676 0.000331183 0.0646654 -28.4515 -6.33881 93.4609 -3.11098 44.6387 -7.02251 4.86588 -7.37732 -0.984017 2.11903 -6.51425 6.76293 -54.0297 -1.39884 87.7707 6.34432 67.5015 -5.33785 -2.1308 15.9094 -0.498319 2.41083 -21.5109 -9.10335 
-243.036 92.7739 -259.732 61.751 -39.8754 -22.5685 -70.1915 0 88.8779 80.9191 73.8203 2.01164 1.84779 23.3848 1.6956 -154.881 21.9927 174.595 -158.296 61.4721 -171.726 0.0789663 -14.3553 -33.8735 -67.0655 47.2078 -88.106 9.25424 16.5687 -29.6062 0.420957 0.000575396 0.35866 -1.85156 6.20703 44.3356 -63.1556 -34.9177 93.1577 8.93704 -15.0971 31.2181 0.58676 0.000331183 0.0646654 -33.1786 -6.18973 94.2424 -3.00995 42.9679 -7.65376 4.49555 -9.65066 -1.05185 0.437593 -2.80901 4.9704 -47.9526 -1.13812 88.216 6.48996 72.2691 -12.9495 -6.82148 8.92488 0.869832 1.75959 -15.19 3.46099 
-239.402 93.8644 -256.939 62.3968 -40.4674 -21.4265 -70.1915 0 88.8779 83.7915 73.1644 0.115739 1.95201 22.6222 1.67966 -153.43 21.5354 174.843 -156.855 60.9077 -172.425 0.0331485 -14.5634 -33.8078 -67.2086 46.5397 -88.0465 9.6662 15.3984 -32.3034 0.420957 0.000575396 0.35866 -1.83589 6.1291 44.4698 -62.2614 -35.2587 92.9279 10.3813 -17.8041 30.9941 0.58676 0.000331183 0.0646654 -38.2633 -5.9948 93.7028 -2.90547 40.663 -8.71154 5.46594 -10.2039 -1.1123 0.813292 -4.24653 7.26774 -42.8684 0.312989 88.3527 7.49135 73.1621 -12.3792 -4.65603 3.47854 0.622679 1.80397 -10.6636 -7.37013 
-235.609 94.7469 -254.244 62.6784 -39.8514 -20.9917 -70.1915 0 88.8779 81.6113 71.9962 3.06439 3.00396 21.5809 0.954925 -152.2 20.9863 174.738 -155.877 60.2982 -172.712 0.0090947 -14.7825 -33.1834 -68.9627 46.1707 -87.1569 11.2469 16.225 -35.0326 0.420957 0.000575396 0.35866 -1.79486 5.97934 44.5618 -64.0528 -35.901 90.8118 11.0154 -18.337 31.7946 0.58676 0.000331183 0.0646654 -42.9594 -7.2813 92.4355 -2.52611 37.319 -7.75724 5.71386 -10.7053 -1.13694 0.995196 -5.14063 9.26102 -38.0896 0.110498 87.513 5.65649 69.7189 -10.652 -9.26056 0.945146 1.34991 1.91432 -13.4304 -6.16286 
-232.118 95.4116 -251.633 62.4054 -38.8949 -20.7904 -70.1915 0 88.8779 83.1375 70.9908 1.75054 2.11272 20.4381 1.28954 -151.076 20.5985 174.482 -154.391 59.8181 -173.308 -0.0160664 -14.9282 -33.0054 -69.0149 44.8983 -87.4765 11.5131 15.0197 -37.7617 0.420957 0.000575396 0.35866 -1.75436 5.72793 45.1965 -64.2794 -35.8176 89.3023 8.24065 -13.7025 31.564 0.58676 0.000331183 0.0646654 -46.6718 -8.15779 91.4221 -2.11593 34.5935 -8.06493 5.22644 -10.8084 -1.12353 1.06462 -5.45016 9.96402 -33.9219 0.537759 87.204 4.63697 63.4327 -4.85865 -8.23907 -2.37779 1.22941 2.26016 -18.6214 -16.0265 
-228.639 95.4064 -248.439 62.431 -37.8922 -20.7595 -70.1915 0 88.8779 79.0023 70.2117 4.90477 3.00738 19.4985 1.86302 -150.555 20.396 173.861 -153.117 59.5327 -174.152 -0.102158 -15.3789 -32.6854 -69.4776 43.4657 -87.5597 11.9993 14.1448 -40.6039 0.420957 0.000575396 0.35866 -1.67381 5.4369 45.4112 -65.664 -36.0776 87.3788 8.54395 -13.8828 32.1576 0.58676 0.000331183 0.0646654 -49.9524 -7.67647 94.1404 -1.41797 33.4759 -11.3086 5.01532 -12.805 -1.18858 0.888329 -4.67432 8.2691 -31.0056 0.228486 86.3799 2.84389 54.4533 -2.918 -6.06511 -3.15555 1.01141 2.27774 -22.1297 -13.6876 
-225.175 94.9111 -245.3 62.545 -36.8897 -21.612 -70.1915 0 88.8779 76.4414 69.5632 5.69318 3.1298 18.8565 2.18656 -150.324 20.2436 172.725 -151.632 59.3038 -175.113 -0.0353377 -15.2513 -31.875 -66.8367 41.146 -90.8726 11.1562 12.1905 -42.6568 0.420957 0.000575396 0.35866 -1.70329 5.23165 47.1168 -65.841 -35.0403 85.634 7.84253 -12.254 33.0942 0.58676 0.000331183 0.0646654 -53.2421 -7.97417 96.8857 -1.08597 32.4604 -13.6734 5.69281 -14.1839 -1.24127 1.5489 -5.34226 6.32936 -28.6629 -0.516556 86.5179 1.90635 44.5031 -0.769022 -5.57391 -4.96264 1.01389 2.43749 -23.5314 -10.4918 
